<svg id="Layer_1" data-name="Layer 1" xmlns="http://www.w3.org/2000/svg" viewBox="0 0 122.76 122.76"><title>logo</title><circle cx="61.38" cy="61.38" r="61.38" fill="#92c641"/><circle cx="35.19" cy="74.19" r="4.2" fill="#fff"/><path d="M224.93,315.67c-4.8-5.8-13-16-14.44-17.95,6.21-4,10.53-9,10.53-15.39s-5.69-10.7-15.69-11.9c-2.92-.35-6-.53-8.74-.64l.18,4.95c14.32.15,16.83,5.23,16.83,8.65,0,7.42-7.58,12.05-11.37,14.13C204,300,213.8,312.89,218.5,319.05c.82-.36,1.4-.64,1.64-.75Z" transform="translate(-149.11 -236.34)" fill="#fff"/><path d="M223,313.32h0s-7.67,4.47-8.77,5c-6.83,3.35-12.5,5.65-16.41,7.34l2.37,6.5c3.19-1.69-1.42.75,7.4-3.53s17.49-8.48,20-9.88C227.11,318.24,225.69,316.61,223,313.32Z" transform="translate(-149.11 -236.34)" fill="#fff"/><circle cx="54.67" cy="48.8" r="1.96" fill="#fff"/><path d="M201,285.14a2.77,2.77,0,1,1,2.78,2.76h0A2.77,2.77,0,0,1,201,285.14Zm3.91,0a1.15,1.15,0,1,0-2.29,0,1.14,1.14,0,0,0,1.14,1.16h0a1.14,1.14,0,0,0,1.13-1.14Z" transform="translate(-149.11 -236.34)" fill="#fff"/></svg>