<?xml version="1.0" standalone="no"?>
<!DOCTYPE svg PUBLIC "-//W3C//DTD SVG 1.1//EN" "http://www.w3.org/Graphics/SVG/1.1/DTD/svg11.dtd">
<svg xmlns="http://www.w3.org/2000/svg" xmlns:xlink="http://www.w3.org/1999/xlink" version="1.1" id="Layer_1" x="0px" y="0px" viewBox="0 0 330.4 136.3" style="enable-background:new 0 0 330.4 136.3;" xml:space="preserve" width="330.3999938964844" height="136.3000030517578">
<style type="text/css">
	.st0{fill:#92C641;}
	.st1{fill:#FFFFFF;}
	.st2{fill:#26403C;}
</style>
<path class="st0" d="M140.8,42.3h-8.9l-2.7-9.3c-0.4-1.5-1-3-1.7-4.5c-0.5-1-1.3-1.8-2.3-2.4c-1.2-0.6-2.5-0.9-3.8-0.8h-6v17H107  V0.5h16.9c5.1,0,8.8,1,11.3,3s3.6,5.1,3.6,9.4c0.1,2.4-0.7,4.8-2.2,6.6c-1.6,1.7-3.7,2.9-6,3.2c1.9,0.6,3.5,1.8,4.6,3.5  c1.2,2.1,2.2,4.4,2.9,6.8L140.8,42.3z M128.6,17.3c1.2-1.1,1.9-2.7,1.8-4.4c0.1-1.7-0.5-3.3-1.8-4.4c-1.3-1-2.9-1.5-4.5-1.5h-8.7  v11.7h8.7C125.7,18.8,127.3,18.3,128.6,17.3L128.6,17.3z"/>
<path class="st0" d="M149.2,38.9c-2.3-2.2-3.5-5.5-3.5-9.7V13.5c0-4.2,1.2-7.4,3.5-9.7s6.1-3.3,11.4-3.3h14v6.6h-14  c-1.8-0.1-3.5,0.4-4.9,1.5c-1,1-1.6,2.7-1.6,4.9v4.6H172v6.6h-17.8v4.6c-0.1,1.8,0.4,3.5,1.6,4.9c1.3,1.2,3.1,1.7,4.9,1.6h14.1v6.6  h-14.1C155.3,42.3,151.5,41.1,149.2,38.9z"/>
<path class="st0" d="M180.4,13.5c0-4.2,1.2-7.4,3.5-9.7s6.1-3.3,11.4-3.3h14v6.6h-14c-1.8-0.1-3.5,0.4-4.9,1.5  c-1.1,1-1.6,2.7-1.6,4.9v5.8h17.8v6.6h-17.8v16.4h-8.4V13.5z"/>
<path class="st0" d="M219,39.5c-2.8-2.3-4.2-5.6-4.2-9.7V0.5h8.4v29.4c0,4.4,2.7,6.6,8.1,6.6s8.1-2.2,8.1-6.6V0.5h8.4v29.4  c0,4.1-1.4,7.4-4.2,9.7c-2.8,2.3-6.9,3.5-12.3,3.5C225.9,43,221.8,41.9,219,39.5z"/>
<path class="st0" d="M290.4,42.3h-8.9l-2.7-9.3c-0.4-1.5-1-3-1.7-4.5c-0.5-1-1.3-1.8-2.3-2.4c-1.2-0.6-2.5-0.9-3.8-0.8h-6v17h-8.4  V0.5h16.9c5.1,0,8.9,1,11.3,3s3.6,5.1,3.6,9.4c0.1,2.4-0.7,4.8-2.2,6.6c-1.6,1.7-3.7,2.9-6,3.2c1.9,0.6,3.5,1.8,4.6,3.5  c1.2,2.1,2.2,4.4,2.9,6.8L290.4,42.3z M278.2,17.3c1.2-1.1,1.9-2.7,1.8-4.3c0.1-1.7-0.5-3.3-1.8-4.4c-1.3-1-2.9-1.5-4.5-1.5H265  v11.7h8.7C275.3,18.8,276.9,18.3,278.2,17.3L278.2,17.3z"/>
<path class="st0" d="M297.2,0.5h18.4c4.4,0,7.7,1,10,2.9s3.5,4.7,3.5,8.3c0,1.9-0.6,3.8-1.8,5.3c-1.3,1.7-3.1,2.8-5.2,3.3  c2.3,0.4,4.5,1.6,6,3.4c1.6,2,2.4,4.5,2.3,7.1c0.1,3.2-1.2,6.3-3.7,8.4c-2.5,2.1-5.9,3.1-10.2,3.1h-19.3V0.5z M315.5,17.3  c1.4,0.1,2.8-0.4,3.9-1.4c1-1,1.5-2.3,1.5-3.7c0.1-1.4-0.5-2.7-1.5-3.7c-1-1-2.4-1.5-3.9-1.4h-9.8v10.3H315.5z M314.7,35.7  c2.5,0,4.3-0.5,5.5-1.5c1.3-1.1,1.9-2.8,1.8-4.4c0.1-1.7-0.5-3.3-1.8-4.4c-1.2-1-3-1.5-5.5-1.5h-9.1v11.8L314.7,35.7z"/>
<circle class="st0" cx="214.8" cy="99" r="10.9"/>
<path class="st0" d="M214.8,114.4c-8.5,0-15.4-6.9-15.4-15.4c0-8.5,6.9-15.4,15.4-15.4c8.5,0,15.4,6.9,15.4,15.4  C230.2,107.5,223.3,114.4,214.8,114.4z M214.8,92.6c-3.5,0-6.4,2.9-6.4,6.4c0,3.5,2.9,6.4,6.4,6.4s6.4-2.9,6.4-6.4c0,0,0,0,0,0  C221.2,95.5,218.3,92.6,214.8,92.6z"/>
<path class="st0" d="M214.8,134.1c-19.4,0-35.1-15.7-35.1-35.1S195.4,64,214.8,64c19.4,0,35.1,15.7,35.1,35  C249.8,118.4,234.2,134,214.8,134.1z M214.8,73c-14.4,0-26,11.6-26,26s11.6,26,26,26s26-11.6,26-26C240.8,84.7,229.2,73,214.8,73  C214.8,73,214.8,73,214.8,73L214.8,73z"/>
<path class="st1" d="M171.3,63.1v73.2H166V68.1c-0.4,0.1-0.8,0.3-1.2,0.6c-0.7,0.7-1.4,1.5-1.8,2.4l-23.9,45.2L115.2,71  c-0.4-0.9-1.1-1.7-1.8-2.3c-0.4-0.3-0.8-0.5-1.2-0.6v68.3H107V63.1h3.5c3.8-0.2,7.4,2,9,5.4l19.6,36.9l19.6-36.9  c1.6-3.5,5.2-5.6,9-5.4H171.3z"/>
<path class="st1" d="M307,103.5c-2.1-2.7-4.9-4.8-8.1-6.1c2.6-1.2,4.8-3,6.4-5.2c2.3-3.1,3.5-6.9,3.5-10.7c0-3.3-0.8-6.6-2.5-9.5  c-1.6-2.8-3.9-5-6.7-6.6c-2.9-1.6-6.2-2.4-9.5-2.4h-31.6v73.2h30c6.9,0,12.4-1.9,16.4-5.5s6-8.7,6-15  C311,111.4,309.6,107.1,307,103.5z M289.3,67.9c4.3,0,7.8,1.2,10.4,3.7s3.8,5.7,3.8,9.9c0.1,3.7-1.3,7.3-4,9.8  c-2.7,2.6-6.4,4-10.2,3.8h-25.5V67.9H289.3z M301,127.4c-3.1,2.7-7.7,4.1-13.5,4.1h-23.7V100h23.8c5.7,0,10.2,1.4,13.4,4.2  s4.8,6.6,4.8,11.6S304.1,124.8,301,127.4z"/>
<rect x="325.2" y="63.1" class="st1" width="5.2" height="73.2"/>
<polygon class="st0" points="73,39.4 77.3,43.9 81.6,39.5 "/>
<path class="st2" d="M76.9,45.3v83.2c0,3.6-3.2,6.5-7.2,6.5H11.7c-4,0-7.2-2.9-7.2-6.5V93.6c-0.3,0-0.6,0-0.8,0v34.9  c0,4,3.6,7.3,8,7.3h58c4.4,0,8-3.3,8-7.3V45.3H76.9L76.9,45.3z"/>
<path class="st1" d="M69.7,136.3H11.7c-4.7,0-8.5-3.5-8.5-7.8V93.1h0.5c0.3,0,0.5,0,0.8,0h0.5v35.4c0,3.3,3,6,6.7,6h57.9  c3.7,0,6.7-2.7,6.7-6V44.8h1.8v83.7C78.2,132.8,74.4,136.3,69.7,136.3z"/>
<path class="st2" d="M69.7,0.5H11.7c-4.4,0-8,3.3-8,7.3v82c0.3,0,0.6,0,0.8,0v-82c0-3.6,3.2-6.5,7.2-6.5h57.9c4,0,7.2,2.9,7.2,6.5  v33.7h0.8V7.8C77.7,3.8,74.1,0.5,69.7,0.5z"/>
<path class="st0" d="M4.2,90.3H3.7H3.2V7.8C3.2,3.5,7,0,11.7,0h57.9c4.7,0,8.5,3.5,8.5,7.8V42h-1.8l-0.1-0.5V7.8c0-3.3-3-6-6.7-6  H11.7c-3.7,0-6.7,2.7-6.7,6v82.5L4.2,90.3L4.2,90.3z"/>
<circle class="st0" cx="40.7" cy="123.9" r="1.2"/>
<path class="st0" d="M40.7,125.6c-0.9,0-1.7-0.8-1.7-1.7c0-0.9,0.8-1.7,1.7-1.7c0.9,0,1.7,0.8,1.7,1.7c0,0,0,0,0,0  C42.4,124.8,41.6,125.6,40.7,125.6z M40.7,123.2c-0.4,0-0.7,0.2-0.8,0.6c0,0.4,0.2,0.7,0.6,0.8c0.1,0,0.1,0,0.2,0  c0.4,0,0.7-0.4,0.6-0.8C41.3,123.5,41,123.2,40.7,123.2z"/>
<path class="st0" d="M40.7,127.8c-2.1,0-3.9-1.7-3.9-3.9c0-2.1,1.7-3.9,3.9-3.9c2.1,0,3.9,1.7,3.9,3.9c0,0,0,0,0,0  C44.6,126,42.8,127.8,40.7,127.8L40.7,127.8z M40.7,121c-1.6,0-2.9,1.3-2.9,2.9s1.3,2.9,2.9,2.9c1.6,0,2.9-1.3,2.9-2.9c0,0,0,0,0,0  C43.6,122.3,42.3,121,40.7,121C40.7,121,40.7,121,40.7,121L40.7,121z"/>
<path class="st1" d="M49.9,9.7H31.5c-0.6,0-1-0.4-1-1s0.4-1,1-1h18.5c0.6,0,1,0.4,1,1S50.5,9.7,49.9,9.7z"/>
<polygon class="st1" points="8.2,96 4.2,91.7 0,95.9 "/>
<path class="st0" d="M56.4,83.8c-5.1-6.2-13.8-17-15.3-19.1c6.6-4.2,11.2-9.5,11.2-16.3s-6-11.4-16.7-12.6c-3.1-0.4-6.4-0.6-9.3-0.7  l0.2,5.3c15.2,0.2,17.9,5.5,17.9,9.2c0,7.9-8,12.8-12.1,15c1.9,2.6,12.3,16.3,17.3,22.9c0.9-0.4,1.5-0.7,1.7-0.8L56.4,83.8z"/>
<path class="st1" d="M54.3,81.2L54.3,81.2c0,0-8.1,4.8-9.3,5.3c-7.2,3.6-13.3,6-17.4,7.8l2.5,6.9c3.4-1.8-1.5,0.8,7.9-3.8  s18.6-9,21.2-10.5C58.7,86.5,57.2,84.7,54.3,81.2z"/>
<circle class="st0" cx="33.9" cy="51.3" r="2.1"/>
<path class="st0" d="M31,51.3c0-1.6,1.3-2.9,2.9-2.9c1.6,0,2.9,1.3,2.9,2.9s-1.3,2.9-2.9,2.9c0,0,0,0,0,0C32.3,54.3,31,53,31,51.3z   M35.2,51.3c0-0.7-0.5-1.2-1.2-1.2s-1.2,0.5-1.2,1.2c0,0.7,0.5,1.2,1.2,1.2c0,0,0,0,0,0C34.6,52.5,35.1,52,35.2,51.3L35.2,51.3z"/>
</svg>