<svg id="Layer_1" data-name="Layer 1" xmlns="http://www.w3.org/2000/svg" viewBox="0 0 699.89 288.84"><title>white</title><g id="Layer_2" data-name="Layer 2"><g id="Layer_1-2" data-name="Layer 1-2"><path d="M472,443.17H453.13l-5.8-19.61a52.07,52.07,0,0,0-3.56-9.43A12.67,12.67,0,0,0,439,409a16.23,16.23,0,0,0-8.09-1.76H418.19v35.92H400.33V354.73h35.78q16.15,0,23.86,6.35T467.68,381a20.68,20.68,0,0,1-4.61,14,21.35,21.35,0,0,1-12.71,6.82,17.52,17.52,0,0,1,9.72,7.45,62.43,62.43,0,0,1,6.06,14.43Zm-25.84-52.95a13.42,13.42,0,0,0,0-18.57,14.46,14.46,0,0,0-9.55-3.09H418.12v24.78h18.45a14.48,14.48,0,0,0,9.55-3Z" transform="translate(-173.72 -353.67)" fill="#fff"/><path d="M489.77,436.1c-4.89-4.71-7.32-11.55-7.32-20.46V382.28q0-13.41,7.32-20.48t24.15-7.07h29.65v13.89H513.92a14.33,14.33,0,0,0-10.32,3.28q-3.32,3.3-3.34,10.38V392H538v13.89H500.26v9.75a11.93,11.93,0,0,0,13.66,13.64h29.82v13.89H513.92Q497.12,443.17,489.77,436.1Z" transform="translate(-173.72 -353.67)" fill="#fff"/><path d="M555.72,382.28q0-13.41,7.33-20.48t24.15-7.07h29.65v13.89H587.2a14.19,14.19,0,0,0-10.3,3.28c-2.24,2.12-3.34,5.66-3.34,10.38v12.24h37.65v13.92H573.56v34.73H555.72Z" transform="translate(-173.72 -353.67)" fill="#fff"/><path d="M637.54,437.43q-8.84-7.4-8.83-20.54V354.73h17.81v62.16q0,14,17.18,14t17.19-14V354.73H698.7v62.16q0,13.14-8.85,20.54t-26.09,7.31Q646.45,444.74,637.54,437.43Z" transform="translate(-173.72 -353.67)" fill="#fff"/><path d="M788.74,443.17H769.91l-5.8-19.61a54.63,54.63,0,0,0-3.54-9.43,12.75,12.75,0,0,0-4.81-5.12,16.23,16.23,0,0,0-8.09-1.76H735v35.92H717.15V354.73h35.77q16.19,0,23.87,6.35T784.5,381a20.52,20.52,0,0,1-4.62,14,21.3,21.3,0,0,1-12.7,6.82,17.52,17.52,0,0,1,9.72,7.45A62.93,62.93,0,0,1,783,423.71ZM762.9,390.22a13.22,13.22,0,0,0,.1-18.51,14.51,14.51,0,0,0-9.55-3.09H735V393.4h18.45a14.43,14.43,0,0,0,9.49-3.11Z" transform="translate(-173.72 -353.67)" fill="#fff"/><path d="M803.27,354.73h38.92q13.89,0,21.29,6t7.39,17.58a18.48,18.48,0,0,1-3.79,11.31,19.34,19.34,0,0,1-11,6.95,21.15,21.15,0,0,1,12.7,7.26,22.58,22.58,0,0,1,4.79,15,21.73,21.73,0,0,1-7.9,17.74q-7.87,6.52-21.54,6.51H803.27Zm38.54,35.62a11.27,11.27,0,0,0,8.16-3,10.44,10.44,0,0,0,3.09-7.9,10.64,10.64,0,0,0-3.09-7.9,11.41,11.41,0,0,0-8.16-3H821.08v21.73Zm-1.52,38.93q7.83,0,11.62-3.1a13.6,13.6,0,0,0,0-18.82c-2.52-2.12-6.35-3.1-11.62-3.1H821.06v25Z" transform="translate(-173.72 -353.67)" fill="#fff"/><circle cx="454.95" cy="209.69" r="23.11" fill="#fff"/><path d="M628.67,596.06a32.7,32.7,0,1,1,32.67-32.72A32.71,32.71,0,0,1,628.67,596.06Zm0-46.21a13.54,13.54,0,1,0,13.51,13.55v-.06A13.53,13.53,0,0,0,628.67,549.85Z" transform="translate(-173.72 -353.67)" fill="#fff"/><path d="M628.67,637.61a74.25,74.25,0,1,1,74.23-74.27A74.25,74.25,0,0,1,628.67,637.61Zm0-129.32a55.07,55.07,0,1,0,55.06,55.07,55.07,55.07,0,0,0-55.06-55.07h0Z" transform="translate(-173.72 -353.67)" fill="#fff"/><path d="M536.49,487.29V642.42h-11.2V497.83a7.63,7.63,0,0,0-2.56,1.21,15.49,15.49,0,0,0-3.79,5l-50.58,95.75L417.81,504a15.79,15.79,0,0,0-3.86-4.92,6.92,6.92,0,0,0-2.56-1.2V642.51H400.33V487.29h7.5a20.09,20.09,0,0,1,19.06,11.47L468.36,577l41.51-78.24a20.09,20.09,0,0,1,19.06-11.45Z" transform="translate(-173.72 -353.67)" fill="#fff"/><path d="M823.92,573a40.78,40.78,0,0,0-17.16-12.87A34.59,34.59,0,0,0,820.4,549a37.58,37.58,0,0,0,7.31-22.71,39.34,39.34,0,0,0-5.26-20.09,36.74,36.74,0,0,0-14.16-14,40.81,40.81,0,0,0-20.1-5h-67V642.34h63.53c14.58,0,26.22-3.92,34.63-11.65s12.71-18.49,12.71-31.77A41.5,41.5,0,0,0,823.92,573Zm-37.47-75.44c9.17,0,16.56,2.61,22,7.74s8.07,12,8.07,21a27.28,27.28,0,0,1-8.47,20.8,29.65,29.65,0,0,1-21.62,8.16H732.27v-57.7Zm24.76,126c-6.57,5.74-16.23,8.64-28.7,8.64H732.27V565.46h50.32c12.06,0,21.61,3,28.36,9s10.06,14,10.06,24.5S817.75,617.88,811.21,623.55Z" transform="translate(-173.72 -353.67)" fill="#fff"/><rect x="688.7" y="133.62" width="11.1" height="155.14" fill="#fff"/><polygon points="154.69 83.47 163.63 92.91 172.8 83.72 154.69 83.47" fill="#fff"/><path d="M336.5,449.67V625.84c0,7.58-6.82,13.77-15.21,13.77H198.58c-8.47,0-15.2-6.19-15.2-13.77V551.9q-.9,0-1.8,0v74c0,8.47,7.62,15.4,16.94,15.4H321.29c9.37,0,16.95-6.91,16.95-15.4V449.67H336.5Z" transform="translate(-173.72 -353.67)" fill="#fff"/><path d="M321.29,642.29H198.58c-10,0-18.06-7.39-18.06-16.45V550.78h1.12a15.88,15.88,0,0,0,1.69,0h1.1v75c0,7,6.36,12.7,14.15,12.7H321.29c7.8,0,14.15-5.69,14.15-12.7V448.61h3.92V625.84C339.36,634.9,331.25,642.29,321.29,642.29Z" transform="translate(-173.72 -353.67)" fill="#fff"/><path d="M321.29,354.73H198.58c-9.38,0-16.94,6.9-16.94,15.39V543.79h1.8V370.12c0-7.6,6.82-13.78,15.21-13.78H321.29c8.48,0,15.21,6.18,15.21,13.78v71.46h1.8V370.12C338.3,361.63,330.66,354.73,321.29,354.73Z" transform="translate(-173.72 -353.67)" fill="#fff"/><path d="M182.53,544.87h-2V370.12c0-9.06,8-16.45,18.06-16.45H321.29c10,0,18.07,7.39,18.07,16.45v72.5h-3.75l-.17-1.06V370.12c0-7-6.35-12.7-14.15-12.7H198.58c-7.81,0-14.15,5.71-14.15,12.7V544.83h-1.9Z" transform="translate(-173.72 -353.67)" fill="#fff"/><circle cx="86.22" cy="262.43" r="2.56" fill="#fff"/><path d="M259.94,619.7a3.63,3.63,0,1,1,3.6-3.65v.05A3.62,3.62,0,0,1,259.94,619.7Zm0-5.11a1.51,1.51,0,0,0-.36,3h.36a1.51,1.51,0,0,0,0-3Z" transform="translate(-173.72 -353.67)" fill="#fff"/><path d="M259.94,624.29a8.22,8.22,0,1,1,8.19-8.24v.05a8.19,8.19,0,0,1-8.19,8.19Zm0-14.29a6.1,6.1,0,1,0,6.08,6.12v0a6.09,6.09,0,0,0-6-6.17h-.08Z" transform="translate(-173.72 -353.67)" fill="#fff"/><path d="M279.47,374.17H240.39a2.12,2.12,0,1,1,0-4.24h39.08a2.12,2.12,0,0,1,0,4.24Z" transform="translate(-173.72 -353.67)" fill="#fff"/><polygon points="17.47 203.38 8.85 194.28 0 203.13 17.47 203.38" fill="#fff"/><path d="M293.13,531c-10.81-13-29.25-36-32.47-40.37,14-8.87,23.68-20.12,23.68-34.6s-12.8-24-35.29-26.75c-6.56-.79-13.45-1.19-19.65-1.44l.4,11.14c32.21.34,37.85,11.75,37.85,19.44,0,16.69-17,27.09-25.57,31.77,4,5.55,26,34.56,36.58,48.41,1.84-.82,3.16-1.44,3.69-1.69Z" transform="translate(-173.72 -353.67)" fill="#fff"/><path d="M288.74,525.75h0S271.5,535.81,269,537c-15.35,7.54-28.1,12.71-36.89,16.5l5.32,14.61c7.18-3.79-3.2,1.7,16.64-7.94s39.31-19.06,44.92-22.2C298,536.82,294.82,533.14,288.74,525.75Z" transform="translate(-173.72 -353.67)" fill="#fff"/><circle cx="71.86" cy="108.73" r="4.41" fill="#fff"/><path d="M239.37,462.4a6.23,6.23,0,1,1,6.25,6.21h0A6.24,6.24,0,0,1,239.37,462.4Zm8.79,0a2.58,2.58,0,1,0-2.6,2.56h0a2.58,2.58,0,0,0,2.54-2.56Z" transform="translate(-173.72 -353.67)" fill="#fff"/></g></g></svg>