<svg id="Layer_1" height="512" viewBox="0 0 512 512" width="512" xmlns="http://www.w3.org/2000/svg" data-name="Layer 1"><path d="m320.445 373.386c11.527 4.95 23.142 11.938 31.7 21.228 6.83 7.415 11.956 16.669 11.956 26.977 0 17.967-14.784 31.954-29.052 40.646-23.118 14.083-52.26 19.725-79.058 19.725s-55.945-5.64-79.065-19.725c-14.268-8.692-29.045-22.681-29.045-40.646 0-10.308 5.124-19.561 11.953-26.976 8.556-9.291 20.169-16.279 31.7-21.229l1.483-.637 34.065 47.9a35.527 35.527 0 0 0 57.819 0l34.065-47.9z" fill="#92c640" fill-rule="evenodd"/><ellipse cx="255.991" cy="174.249" fill="#92c640" rx="45.81" ry="45.796" transform="matrix(1 -.002 .002 1 -.305 .449)"/><path d="m255.991 218.044a43.8 43.8 0 1 1 43.81-43.8 43.849 43.849 0 0 1 -43.81 43.8zm0-119.6a75.8 75.8 0 1 0 75.8 75.8 75.894 75.894 0 0 0 -75.8-75.8zm97.28 174.4c38.709-54.371 62.378-139.39 1.729-200.044a140.55 140.55 0 0 0 -198.025 0c-60.65 60.657-36.98 145.676 1.736 200.045l92.808 130.385a5.414 5.414 0 0 0 8.937 0l92.815-130.388zm8.83 148.749c0 19-17.6 32.579-28.092 38.938-20.59 12.574-48.3 19.433-78.018 19.433s-57.435-6.859-78.025-19.433c-10.488-6.359-28.085-19.933-28.085-38.938 0-17.718 16.318-35.151 42.438-46.368l33.129 46.583a37.529 37.529 0 0 0 61.079 0l33.129-46.583c26.12 11.217 42.445 28.65 42.445 46.368zm15.518-371.373a172.39 172.39 0 0 0 -243.263 0c-32.372 32.364-48.256 74.16-45.956 120.956 1.972 40.224 17.683 82.948 44.225 120.242l40.781 57.3c-34.723 16.718-55.528 43.439-55.528 72.874 0 50.655 60.657 90.378 138.111 90.378s138.1-39.723 138.1-90.378c0-29.435-20.805-56.156-55.528-72.874l40.767-57.3c27.185-38.151 42.945-81.661 44.374-122.456 1.628-45.939-14.311-87.02-46.083-118.742z" fill-rule="evenodd"/></svg>
