<svg id="a" height="512" viewBox="0 0 512 512" width="512" xmlns="http://www.w3.org/2000/svg" data-name="Vectors"><circle cx="184.81" cy="155.74" fill="#41045b" r="12.69"/><path d="m414.25 117.55v248.22c0 7.37-3.31 14.36-9.01 19.04l-63.45 54.44c-10.71 9.04-26.72 7.69-35.77-3.02-3.84-4.55-5.96-10.31-5.99-16.26v-23.22h-76.14c-28.03 0-50.76-22.73-50.76-50.76v-38.07c0-7.01 5.68-12.69 12.69-12.69s12.69 5.68 12.69 12.69v38.07c0 14.02 11.36 25.38 25.38 25.38h76.14v-204.2c-.12-10.98 4.5-21.48 12.69-28.81l54.13-46.19h-142.95c-10.95 0-20.66 7-24.11 17.39-2.03 5.15-7.17 8.38-12.69 7.99-7.01 0-12.69-5.68-12.69-12.69-.12-1.01-.12-2.03 0-3.05 6.95-21.33 27.07-35.57 49.49-35.02h139.59c12.79-.1 25.12 4.77 34.39 13.58 10.39 9.57 16.33 23.05 16.37 37.18z" fill="#41045b"/><path d="m100.8 224.65c-4.06 4.06-4.07 10.65 0 14.72l41.5 39.21c4.19 3.93 10.78 3.71 14.71-.48.05-.05.09-.1.14-.15 1.77-1.9 2.76-4.39 2.79-6.98v-26.52h88.83c7.01 0 12.69-5.68 12.69-12.69 0-7.01-5.68-12.69-12.69-12.69h-88.32v-25.38c-.07-5.82-4.84-10.48-10.66-10.41-2.58.09-5.05 1.07-6.98 2.79l-42 38.58z" fill="#a085ec"/></svg>