<svg id="Capa_1" enable-background="new 0 0 512 512" height="512" viewBox="0 0 512 512" width="512" xmlns="http://www.w3.org/2000/svg"><g><path d="m329.517 137.417v24.625l18.156-3.597v-21.028z" fill="#efe7e4"/><path d="m464.729 224.918-9.34-161.67c-.471-8.152-3.959-15.48-9.367-20.888s-12.737-8.896-20.888-9.367l-161.67-9.34c-5.839-.337-11.544 1.835-15.68 5.971l-240.137 240.136c-10.196 10.196-10.196 26.726 0 36.922l87.026 87.026 87.026 87.026c10.196 10.196 26.726 10.196 36.922 0l240.137-240.137c4.136-4.135 6.308-9.84 5.971-15.679zm-97.445-62.876c-23.04 0-40.944-17.029-40.944-40.944 0-23.938 19.405-43.343 43.343-43.343 23.293 0 40.944 17.3 40.944 40.944 0 23.937-19.406 43.343-43.343 43.343z" fill="#c8ea73"/><path d="m414.182 42.645 4.341 75.14 21.37 31.945 20.943 7.784-5.446-94.265c-.942-16.304-13.952-29.314-30.256-30.256l-13.328-.77c1.338 3.239 2.164 6.747 2.376 10.422z" fill="#aad880"/><path d="m458.758 240.598c4.136-4.136 6.308-9.841 5.971-15.68l-.46-7.964c-9.647-22.744-27.949-65.33-27.949-65.33h-15.843l3.044 52.69c.337 5.839-1.835 11.544-5.971 15.68l-240.136 240.137c-2.929 2.929-6.381 5.016-10.056 6.263l14.341 14.341c10.196 10.196 26.726 10.196 36.922 0z" fill="#aad880"/><path d="m501.968 246.142c-24.299-90.688-83.641-150.925-135.097-137.142-14.996 4.018-27.67 13.776-37.354 28.416 3.595 8.839 10.023 16.224 18.156 21.028 6.706-12.868 15.666-21.306 25.996-24.074 2.592-.695 5.287-1.037 8.065-1.037 14.332 0 30.844 9.114 46.535 25.971 21.043 22.606 38.205 55.86 48.327 93.635s11.886 75.156 4.965 105.255c-6.161 26.795-18.852 44.616-34.819 48.894-15.966 4.277-35.868-4.81-54.601-24.934-11.33-12.172-21.535-27.431-30.122-44.82l-19.506 19.506c25.607 47.645 61.64 77.581 96.056 77.581 5.038 0 10.041-.641 14.972-1.962 51.456-13.786 72.728-95.627 48.427-186.317z" fill="#efe7e4"/><path d="m52.027 283.656c-2.521 2.521-2.521 6.609 0 9.131l143.569 143.569c2.521 2.521 6.609 2.521 9.131 0l175.763-175.763c2.521-2.521 2.521-6.609 0-9.131l-143.57-143.569c-2.521-2.521-6.609-2.521-9.131 0z" fill="#fff"/><path d="m380.489 260.592c2.521-2.521 2.521-6.609 0-9.131l-143.569-143.568c-2.521-2.521-6.609-2.521-9.131 0l-5.737 5.737 103.25 103.25c10.241 10.241 10.241 26.846 0 37.087l-156.047 156.048 26.34 26.34c2.521 2.521 6.609 2.521 9.131 0z" fill="#f9f6f6"/><path d="m287.394 200.987c-5.029-5.029-13.182-5.029-18.211 0l-9.976 9.976c-17.013-12.697-41.279-11.323-56.721 4.119-16.95 16.951-16.95 44.531 0 61.48l9.333 9.333c6.925 6.924 6.926 18.132 0 25.058-6.924 6.925-18.132 6.926-25.058 0l-9.333-9.332c-4.227-4.227-6.031-10.256-4.824-16.126 1.432-6.966-3.055-13.774-10.021-15.206-6.968-1.433-13.775 3.055-15.206 10.021-2.528 12.3.346 24.889 7.721 34.763l-9.976 9.976c-5.029 5.029-5.029 13.183 0 18.211 5.028 5.029 13.182 5.029 18.211 0l9.973-9.973c16.713 12.512 40.995 11.608 56.725-4.123 16.989-16.989 16.993-44.489 0-61.48l-9.332-9.334c-6.908-6.908-6.908-18.149 0-25.058 6.908-6.908 18.15-6.908 25.058 0l9.332 9.332c4.228 4.228 6.031 10.257 4.824 16.126-1.432 6.966 3.054 13.774 10.021 15.207 6.962 1.428 13.775-3.054 15.207-10.021 2.528-12.299-.345-24.889-7.72-34.764l9.975-9.975c5.027-5.027 5.027-13.181-.002-18.21z" fill="#756e78"/></g></svg>